HIERARCHY
ROOT pelvis
{
  OFFSET 0 100 0
  CHANNELS 6 Xposition Yposition Zposition Zrotation Xrotation Yrotation
  JOINT pelvis_right_femur
  {
    OFFSET -10.78128 -3.44521 -0.5502486
    CHANNELS 3 Zrotation Xrotation Yrotation
    JOINT right_femur_tibia
    {
      OFFSET -0.8047443 -44.0398 -0.1307829
      CHANNELS 3 Zrotation Xrotation Yrotation
      JOINT right_tibia_foot
      {
        OFFSET 3.006224 -47.83518 -5
        CHANNELS 3 Zrotation Xrotation Yrotation
        End Site
        {
          OFFSET 0 -5 15
        }
      }
    }
  }
  JOINT pelvis_left_femur
  {
    OFFSET 10.78128 -3.44521 -0.5502486
    CHANNELS 3 Zrotation Xrotation Yrotation
    JOINT left_femur_tibia
    {
      OFFSET 0.8047443 -44.0398 -0.1307829
      CHANNELS 3 Zrotation Xrotation Yrotation
      JOINT left_tibia_foot
      {
        OFFSET -4.370144 -48.10324 -4.275266
        CHANNELS 3 Zrotation Xrotation Yrotation
        End Site
        {
          OFFSET 0 -5 15
        }
      }
    }
  }
  JOINT pelvis_spine1
  {
    OFFSET 0 6.468898 -3.129235
    CHANNELS 3 Zrotation Xrotation Yrotation
    JOINT spine1
    {
      OFFSET 0 23.15396 4.99043
      CHANNELS 3 Zrotation Xrotation Yrotation
      JOINT spine2
      {
        OFFSET 0 20.79997 -5.064912
        CHANNELS 3 Zrotation Xrotation Yrotation
        JOINT neck
        {
          OFFSET 0 14.38658 9.616178
          CHANNELS 3 Zrotation Xrotation Yrotation
          End Site
          {
            OFFSET 0 20 0
          }
        }
      }
      JOINT right_manubrium
      {
        OFFSET -5.722621 16.35077 3.967754
        CHANNELS 3 Zrotation Xrotation Yrotation
        JOINT right_clavicle
        {
          OFFSET -13.16364 1.694482 -4.693211
          CHANNELS 3 Zrotation Xrotation Yrotation
          JOINT right_humerus
          {
            OFFSET -28.5034 -0.3100689 -2.792744
            CHANNELS 3 Zrotation Xrotation Yrotation
            JOINT right_radius
            {
              OFFSET -25.15693 0.02248979 -1.271978
              CHANNELS 3 Zrotation Xrotation Yrotation
              End Site
              {
                OFFSET -15 0 0
              }
            }
          }
        }
      }
      JOINT left_manubrium
      {
        OFFSET 5.722621 16.35077 3.967754
        CHANNELS 3 Zrotation Xrotation Yrotation
        JOINT left_clavicle
        {
          OFFSET 13.16364 1.694482 -4.693211
          CHANNELS 3 Zrotation Xrotation Yrotation
          JOINT left_humerus
          {
            OFFSET 29.39168 -1.063119 -2.237045
            CHANNELS 3 Zrotation Xrotation Yrotation
            JOINT left_radius
            {
              OFFSET 24.59957 -0.9528479 0.9047498
              CHANNELS 3 Zrotation Xrotation Yrotation
              End Site
              {
                OFFSET 15 -0 -0
              }
            }
          }
        }
      }
    }
  }
}
MOTION
Frames: 13
Frame Time: 0.0416666666667
0 103.5113 0 -0.5300891 -1.617333 0.08173668 6.552036 -15.32225 8.921087 -0 37.30883 -0 -8.930532 -20.6565 -5.867516 -4.8325 7.812743 -19.8517 -0 5.500536 -0 14.45067 -10.97528 24.5073 -1.994856 -1.830073 4.966282 2.544884 10.29307 -7.159104 1.005475 21.08184 6.451676 3.17093 -24.61034 8.474444 5.042467 -19.22279 11.51113 86.36874 36.18186 -18.14752 -0 0 14.36052 -8.153419 7.443975 5.530407 6.054561 -20.65801 -2.292633 -91.14341 20.40426 20.47106 0 0 -17.21524 12.80642 11.42342 -1.402465
0.3740556 103.6635 1.472014 -0.6193264 -0.706382 0.2737886 7.075549 -17.94947 9.339557 -0 37.06567 -0 -8.021327 -20.30008 -5.639955 -5.073095 8.476133 -20.01474 -0 5.740651 -0 14.40228 -12.08044 24.33379 -2.021315 -1.831781 4.857726 2.605539 10.27082 -7.288988 1.052048 20.98375 6.508025 3.124896 -24.81004 8.70398 5.022871 -18.99557 11.475 86.86615 36.60594 -18.77419 -0 0 13.91033 -7.719453 7.444974 5.20389 6.222449 -20.78205 -2.223242 -90.43115 20.06748 19.49085 0 0 -18.46417 13.55916 11.13951 -2.329204
0.7011303 103.6912 3.122453 -0.2927807 -0.6617025 0.4274887 6.619865 -19.8805 8.879746 -0 35.68182 -0 -7.297637 -17.63709 -4.973347 -5.59491 10.32953 -20.48744 -0 6.41872 -0 12.5841 -14.41338 24.66426 -1.971464 -1.896055 4.903379 2.686291 10.27884 -7.373062 0.9936208 20.96305 6.48063 3.131759 -24.99859 8.603136 5.034996 -19.18697 11.48545 86.90345 36.33624 -18.98497 -0 0 14.07377 -7.451525 7.155693 5.142481 6.130393 -20.83586 -2.238208 -90.92818 20.57191 20.16617 0 0 -18.12808 13.02067 11.23279 -1.558093
1.007479 103.6546 5.011214 -0.2710607 0.001572048 0.6206334 6.85237 -22.86647 8.320935 -0 33.12005 -0 -6.792647 -15.07467 -4.2427 -5.905992 11.31968 -20.13788 -0 7.397918 -0 11.81776 -16.17498 24.21838 -1.9456 -1.943863 4.881543 2.780746 10.26653 -7.50147 0.9702112 20.90722 6.487441 3.112497 -25.24137 8.634299 5.036539 -19.22001 11.47579 87.17086 36.32466 -19.4497 -0 0 13.97004 -7.051633 6.940838 4.957394 6.127573 -20.93128 -2.214426 -90.98858 20.85186 20.23573 0 0 -18.45283 12.90433 11.18681 -1.32151
1.294607 103.4914 7.179732 -0.2528074 0.5992409 0.8452463 6.923654 -25.48305 7.636423 -0 30.24105 -0 -6.389622 -12.58953 -3.550378 -6.143888 12.16224 -19.69813 -0 8.103253 -0 10.77033 -17.86034 23.62039 -1.927316 -1.980483 4.83117 2.885935 10.2355 -7.642344 0.9523532 20.8601 6.507596 3.080597 -25.49887 8.695892 5.042381 -19.19678 11.46311 87.48706 36.37333 -19.969 -0 0 13.75699 -6.675221 6.779915 4.798247 6.115479 -21.0242 -2.175743 -90.97031 21.18233 20.18716 0 0 -18.89605 12.76092 11.14418 -1.030953
1.575455 103.2232 9.761639 -0.4090086 1.432786 1.136888 7.236331 -28.33056 6.776562 -0 26.61494 -0 -6.226059 -9.909833 -2.831413 -6.225297 12.67411 -18.72901 -0 9.173333 -0 9.995552 -19.07387 22.4663 -1.917849 -2.006715 4.757674 2.993203 10.19499 -7.789164 0.9432136 20.81489 6.539712 3.040139 -25.75803 8.790237 5.048422 -19.11975 11.44734 87.85092 36.48818 -20.53003 -0 0 13.45169 -6.319125 6.670965 4.646704 6.11252 -21.11916 -2.126261 -90.8383 21.48136 19.97959 0 0 -19.47947 12.67991 11.08279 -0.8140107
1.856865 102.8601 12.84582 -0.656837 2.253983 1.500731 7.517285 -30.70133 5.84037 -0 22.95408 -0 -6.276768 -7.326022 -2.184838 -6.163707 13.01056 -17.56159 -0 10.52973 -0 9.052403 -19.79193 20.95083 -1.918383 -2.01857 4.66249 3.097138 10.14539 -7.932522 0.9422286 20.77933 6.58361 2.991896 -25.9993 8.90999 5.057019 -18.98837 11.43118 88.23554 36.66222 -21.0914 -0 0 13.06084 -6.032667 6.641715 4.533283 6.108395 -21.2067 -2.068631 -90.60571 21.75473 19.63313 0 0 -20.15136 12.62699 11.01741 -0.6290836
2.148532 102.4803 16.5474 -1.052913 3.122326 1.95168 7.842283 -32.46654 4.916683 -0 19.57987 -0 -6.569299 -4.88637 -1.621458 -5.916959 13.13321 -16.20831 -0 12.70002 -0 7.816378 -19.764 18.90614 -1.928527 -2.014959 4.553226 3.189443 10.09184 -8.060977 0.9485425 20.75719 6.635875 2.939657 -26.19983 9.042839 5.068636 -18.81352 11.41715 88.6071 36.87849 -21.60471 -0 0 12.61583 -5.851424 6.704482 4.474518 6.099513 -21.28002 -2.009084 -90.29493 21.98478 19.18222 0 0 -20.84803 12.59176 10.95719 -0.4715098
2.456166 102.1793 20.91412 -1.534914 3.826602 2.469636 8.106728 -33.12605 4.103075 -0 17.08352 -0 -7.131673 -2.819561 -1.191886 -5.502632 13.03208 -14.90255 -0 16.012 -0 6.12786 -18.87135 16.53228 -1.948448 -1.993767 4.435539 3.262414 10.03799 -8.163796 0.9617169 20.7531 6.693908 2.886162 -26.3365 9.178164 5.084281 -18.60184 11.40749 88.93279 37.12492 -22.0234 -0 0 12.14127 -5.814028 6.87635 4.48945 6.081329 -21.3317 -1.95295 -89.92415 22.15865 18.65429 0 0 -21.51245 12.55935 10.91196 -0.3300559
2.781265 102.0901 25.92968 -2.0502 4.205755 3.004596 8.304358 -32.38043 3.46871 -0 15.76695 -0 -8.004962 -1.268281 -0.9035307 -4.936579 12.56423 -13.75392 -0 20.96799 -0 3.998947 -16.99778 14.02645 -1.977625 -1.952948 4.318961 3.305689 9.988252 -8.226162 0.9806043 20.77327 6.753125 2.835995 -26.37984 9.299379 5.104803 -18.36678 11.40462 89.16417 37.37919 -22.28267 -0 0 11.67816 -5.96509 7.168741 4.600449 6.048236 -21.35127 -1.907722 -89.52942 22.26586 18.10027 0 0 -22.05789 12.50525 10.89594 -0.1845607
3.115372 102.3277 31.46438 -2.471556 4.004692 3.458086 8.41016 -30.07452 3.009471 -0 15.56025 -0 -9.196729 -0.3615606 -0.7516154 -4.281992 11.52387 -12.80426 -0 27.66459 -0 1.750295 -14.27316 11.8431 -2.014812 -1.891145 4.214699 3.309225 9.94643 -8.23339 1.003488 20.82379 6.808173 2.794368 -26.30279 9.388232 5.13046 -18.12558 11.41038 89.25023 37.61304 -22.31773 -0 0 11.27351 -6.342538 7.581751 4.827415 5.99501 -21.32803 -1.88094 -89.15641 22.30375 17.58278 0 0 -22.39097 12.39966 10.92315 -0.008302917
3.436243 102.9627 37.29474 -2.686017 3.097275 3.717048 8.439612 -26.34088 2.679816 -0 15.94424 -0 -10.59507 -0.1711251 -0.7112458 -3.597557 9.632034 -11.95617 -0 35.76748 -0 -0.2586541 -11.04578 10.34829 -2.057825 -1.807765 4.13647 3.263231 9.915436 -8.170482 1.027844 20.9107 6.852952 2.767426 -26.08216 9.424552 5.160609 -17.90094 11.42609 89.13708 37.78933 -22.06309 -0 0 10.98217 -6.977417 8.101111 5.188617 5.916262 -21.2502 -1.879856 -88.86347 22.28111 17.1809 0 0 -22.4085 12.20377 11.0073 0.2372752
3.710459 103.9716 43.14952 -2.630271 1.550247 3.698728 8.407662 -21.56768 2.433928 -0 16.15788 -0 -11.8992 -0.7545059 -0.7677381 -2.923355 6.665161 -11.0575 -0 44.27101 -0 -1.807017 -7.870489 9.73237 -2.103374 -1.704049 4.098449 3.161299 9.89666 -8.02694 1.050733 21.03688 6.881911 2.760737 -25.70876 9.391779 5.192991 -17.71849 11.45204 88.78566 37.86761 -21.47488 -0 0 10.85657 -7.87903 8.694985 5.692587 5.80835 -21.10835 -1.909055 -88.70951 22.21834 16.97488 0 0 -22.02734 11.87861 11.15518 0.5947732
